<svg
    xmlns="http://www.w3.org/2000/svg"
    viewBox="0 0 612.038 612.037"
    className="w-1/2 fill-current text-gray-900"
    style="enable-background:new 0 0 612.038 612.037;"
  >
    <g>
      <path
        fill="#FFF"
        d="M611.682,293.042c-0.098-2.003-0.171-4.006-0.329-6.009c-0.073-1.319-0.195-2.552-0.257-3.761l-0.109-1.307
		c-0.489-5.972-1.038-11.272-1.698-16.218c-8.72-66.266-39.581-128.782-86.893-176.106C464.582,31.851,387.776,0,306.061,0
		C224.31,0,147.443,31.851,89.641,89.641C31.838,147.431,0.012,224.285,0.012,306.037c0,81.69,31.826,158.545,89.628,216.346
		c57.803,57.803,134.669,89.654,216.433,89.654c81.714,0,158.52-31.838,216.323-89.654c42.243-42.256,71.004-95.367,83.155-153.561
		c3.921-18.906,6.046-38.617,6.351-58.598l0.073-2.002c0.013-0.721,0.05-1.453,0.05-2.186
		C612.012,301.665,611.866,297.341,611.682,293.042z M487.711,486.869c-7.986,0-16.389-2.516-24.95-7.461
		c-27.967-16.061-50.621-53.578-50.548-83.67c0-9.355,2.101-17.709,6.253-24.852c10.063-17.623,34.61-28.604,63.97-28.604h0.073
		c18.979-0.023,37.944,4.666,52.026,12.775c16.535,9.635,24.278,22.203,24.352,39.496c0,13.959-5.386,30.727-15.645,48.447
		C533.827,459.391,514.054,486.869,487.711,486.869z M306.098,579.99c-47.629-0.293-71.798-17.635-71.847-51.537
		c-0.049-20.273,8.513-44.307,22.312-62.711c14.24-19.053,32.254-29.959,49.425-29.959h0.037
		c17.147-0.012,35.161,10.918,49.4,29.959c13.788,18.379,22.374,42.426,22.374,62.699
		C377.737,562.355,353.543,579.697,306.098,579.99z M68.733,442.988c-10.234-17.67-15.632-34.414-15.632-48.361
		c0.073-17.342,7.853-29.945,24.376-39.557c14.069-8.109,33.011-12.799,51.977-12.799h0.085
		c29.359-0.023,53.895,10.955,64.055,28.65c4.104,7.107,6.18,15.475,6.18,24.854c0.098,30.055-22.544,67.572-50.5,83.619
		c-8.732,5.045-16.914,7.475-25.109,7.475C97.933,486.869,78.173,459.391,68.733,442.988z M124.166,125.167h0.146
		c7.975,0,16.377,2.491,24.962,7.462c27.955,16.047,50.585,53.54,50.5,83.645c0,9.367-2.076,17.72-6.192,24.865
		c-10.124,17.66-34.647,28.602-64.043,28.602c-19.015,0.024-37.969-4.666-52.038-12.799c-16.548-9.636-24.328-22.178-24.401-39.496
		c0-14.008,5.435-30.751,15.669-48.423C78.21,152.646,97.958,125.167,124.166,125.167z M306.024,32.046
		c47.581,0.305,71.712,17.647,71.786,51.501c0,20.285-8.561,44.319-22.349,62.712c-14.252,19.027-32.254,29.933-49.449,29.933
		c-17.159,0.012-35.185-10.894-49.425-29.933c-13.812-18.393-22.374-42.439-22.325-62.7
		C234.299,49.681,258.444,32.339,306.024,32.046z M487.81,125.167c26.208,0,46.017,27.491,55.481,43.88
		c10.21,17.66,15.62,34.403,15.596,48.375c-0.049,17.305-7.804,29.884-24.327,39.52c-14.069,8.121-33.072,12.799-52.124,12.799
		c-29.335,0.024-53.882-10.93-64.019-28.602c-4.104-7.12-6.204-15.461-6.204-24.865c-0.098-30.08,22.569-67.597,50.548-83.669
		c8.586-4.946,16.976-7.438,24.938-7.438H487.81z M306.024,373.061c-36.98,0-67.047-30.068-67.047-67.048
		c0-36.968,30.067-67.06,67.047-67.06c36.956,0,67.023,30.092,67.023,67.06C373.047,342.992,342.98,373.061,306.024,373.061z"
      >
        <animateTransform attributeName="transform" dur="1s" repeatCount="indefinite" type="rotate" from="0 306 306" to="360 306 306" />
      </path>
    </g>
  </svg>